<svg xmlns="http://www.w3.org/2000/svg" width="46" height="82" viewBox="0 0 46 82">
  <g fill="none" fill-rule="evenodd" transform="translate(2 1)">
    <path stroke="#CA4C52" stroke-linecap="round" stroke-linejoin="round" stroke-width="2.538" d="M42.069,75.378 C42.069,77.577 40.27,79.378 38.069,79.378 L4.214,79.378 C2.014,79.378 0.214,77.577 0.214,75.378 L0.214,4.779 C0.214,2.579 2.014,0.779 4.214,0.779 L38.069,0.779 C40.27,0.779 42.069,2.579 42.069,4.779 L42.069,75.378 Z"/>
    <path fill="#FFFFFE" d="M16.383,5.893 L25.9,5.893"/>
    <path stroke="#CA4C52" stroke-linecap="round" stroke-linejoin="round" stroke-width="2.538" d="M16.383,5.893 L25.9,5.893"/>
    <path stroke="#CA4C52" stroke-linecap="round" stroke-linejoin="round" stroke-width="2" d="M24.043,70.119 C24.043,71.722 22.744,73.021 21.142,73.021 C19.54,73.021 18.241,71.722 18.241,70.119 C18.241,68.517 19.54,67.219 21.142,67.219 C22.744,67.219 24.043,68.517 24.043,70.119 Z M7.476,34.705 C8.24,36.657 10.709,42.438 14.322,46.052 C18.726,50.455 26.104,52.913 26.104,52.913 L31.018,48.448 L26.028,43.458 L23.31,46.176 C21.542,45.26 19.623,44.018 17.989,42.384 C16.356,40.751 15.114,38.832 14.198,37.064 L16.917,34.346 L12.151,29.58 L7.476,34.705 Z M22.182,31.126 C22.182,31.126 24.902,31.781 26.752,33.63 C28.6,35.479 29.255,38.199 29.255,38.199 L22.182,31.126 Z M22.176,25.573 C22.176,25.573 27.034,26.743 30.337,30.045 C33.639,33.347 34.808,38.205 34.808,38.205 L22.176,25.573 Z"/>
  </g>
</svg>
