<svg xmlns="http://www.w3.org/2000/svg" width="102" height="94" viewBox="0 0 102 94">
  <g fill="none" fill-rule="evenodd" transform="translate(1 2)">
    <path stroke="#CA4C52" stroke-linecap="round" stroke-linejoin="round" stroke-width="2.538" d="M15.224,88.575 C15.224,89.674 14.324,90.575 13.224,90.575 L2.878,90.575 C1.778,90.575 0.878,89.674 0.878,88.575 L0.878,65.634 C0.878,64.534 1.778,63.634 2.878,63.634 L13.224,63.634 C14.324,63.634 15.224,64.534 15.224,65.634 L15.224,88.575 Z"/>
    <path fill="#FFFFFE" d="M6.42,67.5 L9.682,67.5"/>
    <path stroke="#CA4C52" stroke-linecap="round" stroke-linejoin="round" stroke-width="1.5" d="M6.42,67.5 L9.682,67.5"/>
    <path fill="#CA4C52" d="M9.046,85.821 C9.046,86.37 8.6,86.816 8.051,86.816 C7.502,86.816 7.057,86.37 7.057,85.821 C7.057,85.272 7.502,84.827 8.051,84.827 C8.6,84.827 9.046,85.272 9.046,85.821"/>
    <path stroke="#CA4C52" stroke-linecap="round" stroke-linejoin="round" stroke-width="2.538" d="M60.02,86.575 C60.02,88.775 58.22,90.575 56.02,90.575 L27.02,90.575 C24.82,90.575 23.02,88.775 23.02,86.575 L23.02,67.634 C23.02,65.435 24.82,63.634 27.02,63.634 L56.02,63.634 C58.22,63.634 60.02,65.435 60.02,67.634 L60.02,86.575 Z"/>
    <path stroke="#CA4C52" stroke-linecap="round" stroke-linejoin="round" stroke-width="1.5" d="M31.462,85.843 L37.791,85.843 L37.791,81.811 L31.462,81.811 L31.462,85.843 Z M29.016,79.455 L29.016,85.843 L40.236,85.843 L40.236,79.455 L29.016,79.455 Z M27.72,77.383 L30.247,74.45 L39.005,74.45 L41.533,77.383 L41.533,79.455 L27.72,79.455 L27.72,77.383 Z M34.626,81.811 L34.626,85.843 L34.626,81.811 Z M53.894,83.526 C53.894,84.076 53.444,84.526 52.894,84.526 L45.804,84.526 C45.254,84.526 44.804,84.076 44.804,83.526 L44.804,83.012 C44.804,82.462 45.254,82.012 45.804,82.012 L52.894,82.012 C53.444,82.012 53.894,82.462 53.894,83.012 L53.894,83.526 Z M45.015,76.435 L53.731,76.435 L45.015,76.435 Z M45.015,78.857 L48.184,78.857 L45.015,78.857 Z M50.619,78.857 L56.076,78.857 L50.619,78.857 Z"/>
    <path fill="#FFFFFE" d="M59.56,69.429 L23.02,69.429"/>
    <path stroke="#CA4C52" stroke-linecap="round" stroke-linejoin="round" stroke-width="1.5" d="M59.56,69.429 L23.02,69.429"/>
    <path fill="#CA4C52" d="M50.918 67.147C50.918 67.536 50.603 67.852 50.214 67.852 49.825 67.852 49.509 67.536 49.509 67.147 49.509 66.758 49.825 66.443 50.214 66.443 50.603 66.443 50.918 66.758 50.918 67.147M53.124 67.147C53.124 67.536 52.809 67.852 52.42 67.852 52.031 67.852 51.715 67.536 51.715 67.147 51.715 66.758 52.031 66.443 52.42 66.443 52.809 66.443 53.124 66.758 53.124 67.147M55.33 67.147C55.33 67.536 55.015 67.852 54.626 67.852 54.237 67.852 53.921 67.536 53.921 67.147 53.921 66.758 54.237 66.443 54.626 66.443 55.015 66.443 55.33 66.758 55.33 67.147"/>
    <polygon stroke="#CA4C52" stroke-linecap="round" stroke-linejoin="round" stroke-width="2" points="75.124 90.574 90.088 90.574 90.088 81.038 75.124 81.038"/>
    <path stroke="#CA4C52" stroke-linecap="round" stroke-linejoin="round" stroke-width="2.538" d="M69.339,75.469 L69.339,90.575 L95.873,90.575 L95.873,75.469 L69.339,75.469 Z M66.275,70.569 L72.25,63.634 L92.962,63.634 L98.938,70.569 L98.938,75.469 L66.275,75.469 L66.275,70.569 Z"/>
    <path stroke="#CA4C52" stroke-linecap="round" stroke-linejoin="round" stroke-width="2" d="M82.606,81.038 L82.606,90.574"/>
    <path stroke="#CA4C52" stroke-linecap="round" stroke-linejoin="round" stroke-width="1.5" d="M47.389,55.481 L49.908,58 L52.426,55.481 M71.122,54.282 L74.684,54.282 L74.684,50.72 M49.908,41.348 L49.908,56.739 M61.75,41.348 L73.792,53.39 M38.066,41.348 L26.023,53.39 M25.132,50.72 L25.132,54.282 L28.693,54.282"/>
    <polygon stroke="#CA4C52" stroke-linecap="round" stroke-linejoin="round" stroke-width="2.538" points="61.427 7.125 61.427 18.534 38.436 18.534 38.436 7.125 38.438 7.125 43.215 .227 56.647 .227 61.424 7.125"/>
    <path stroke="#CA4C52" stroke-linecap="round" stroke-linejoin="round" stroke-width="1.5" d="M49.931,0.227 L49.931,7.125 M38.436,7.125 L61.427,7.125"/>
    <polyline stroke="#CA4C52" stroke-linecap="round" stroke-linejoin="round" stroke-width="2.538" points="37.458 15.303 32.479 15.303 26.328 22.738 26.326 22.738 26.326 35.036 47.468 35.036 47.466 19.306"/>
    <path stroke="#CA4C52" stroke-linecap="round" stroke-linejoin="round" stroke-width="1.5" d="M38.119,18.607 L36.582,22.738 M26.326,22.738 L47.468,22.738"/>
    <polyline stroke="#CA4C52" stroke-linecap="round" stroke-linejoin="round" stroke-width="2.538" points="62.357 15.303 67.337 15.303 73.487 22.738 73.489 22.738 73.489 35.036 52.347 35.036 52.349 19.306"/>
    <path stroke="#CA4C52" stroke-linecap="round" stroke-linejoin="round" stroke-width="1.5" d="M61.696,18.607 L63.233,22.738 M73.489,22.738 L52.347,22.738"/>
  </g>
</svg>
