<svg xmlns="http://www.w3.org/2000/svg" width="57" height="51" viewBox="0 0 57 51">
  <g fill="#ebe8df" fill-rule="evenodd">
    <path d="M34.49,25.605 C34.49,24.906 35.05,24.336 35.76,24.336 C36.46,24.336 37.02,24.906 37.02,25.605 C37.02,26.305 36.46,26.876 35.76,26.876 C35.05,26.876 34.49,26.305 34.49,25.605 Z M30.57,26.175 C30.36,25.506 30.73,24.796 31.4,24.586 C32.07,24.376 32.78,24.756 32.99,25.425 C33.2,26.086 32.83,26.805 32.16,27.015 C32.03,27.055 31.9,27.065 31.78,27.065 C31.24,27.065 30.74,26.725 30.57,26.175 Z M28.3,29.515 C27.67,29.206 27.42,28.446 27.73,27.815 C28.05,27.185 28.81,26.935 29.44,27.246 C30.06,27.565 30.32,28.326 30,28.956 C29.78,29.395 29.33,29.656 28.86,29.656 C28.67,29.656 28.48,29.605 28.3,29.515 Z M27.12,32.546 C26.97,31.866 27.4,31.185 28.09,31.036 C28.77,30.885 29.45,31.315 29.6,32.006 C29.75,32.685 29.32,33.366 28.63,33.515 C28.54,33.536 28.45,33.546 28.36,33.546 C27.78,33.546 27.25,33.145 27.12,32.546 Z M29.76,36.576 C29.19,36.156 29.07,35.366 29.48,34.805 C29.89,34.236 30.69,34.105 31.25,34.515 C31.82,34.935 31.95,35.725 31.53,36.296 C31.28,36.635 30.9,36.815 30.5,36.815 C30.25,36.815 29.99,36.736 29.76,36.576 Z M33.01,36.595 C33.01,35.895 33.58,35.326 34.28,35.326 C34.98,35.326 35.55,35.895 35.55,36.595 C35.55,37.296 34.98,37.866 34.28,37.866 C33.58,37.866 33.01,37.296 33.01,36.595 Z M37.01,36.595 C37.01,35.895 37.58,35.326 38.28,35.326 C38.98,35.326 39.55,35.895 39.55,36.595 C39.55,37.296 38.98,37.866 38.28,37.866 C37.58,37.866 37.01,37.296 37.01,36.595 Z M41.01,36.595 C41.01,35.895 41.58,35.326 42.28,35.326 C42.98,35.326 43.55,35.895 43.55,36.595 C43.55,37.296 42.98,37.866 42.28,37.866 C41.58,37.866 41.01,37.296 41.01,36.595 Z M45.65,38.275 C45.02,37.975 44.76,37.215 45.06,36.586 C45.36,35.956 46.12,35.685 46.75,35.996 C47.38,36.296 47.65,37.055 47.35,37.685 C47.13,38.135 46.67,38.406 46.2,38.406 C46.02,38.406 45.83,38.366 45.65,38.275 Z M47.73,40.456 C47.46,39.815 47.76,39.065 48.41,38.796 C49.05,38.525 49.8,38.826 50.07,39.475 C50.34,40.116 50.04,40.866 49.39,41.135 C49.23,41.206 49.07,41.236 48.9,41.236 C48.41,41.236 47.94,40.946 47.73,40.456 Z M49.21,45.175 C48.51,45.116 47.99,44.506 48.05,43.805 C48.1,43.105 48.72,42.586 49.41,42.645 C50.11,42.696 50.63,43.315 50.58,44.015 C50.52,44.675 49.96,45.175 49.31,45.175 C49.28,45.175 49.24,45.175 49.21,45.175 Z M46.69,48.305 C46.21,47.796 46.23,46.996 46.74,46.515 C47.25,46.025 48.05,46.055 48.53,46.555 C49.02,47.065 49,47.866 48.49,48.355 C48.24,48.586 47.93,48.706 47.61,48.706 C47.28,48.706 46.94,48.565 46.69,48.305 Z M42.74,48.975 C42.72,48.286 43.27,47.696 43.97,47.675 C44.67,47.656 45.25,48.206 45.28,48.906 C45.3,49.605 44.75,50.185 44.05,50.215 C44.03,50.215 44.02,50.215 44.01,50.215 C43.32,50.215 42.76,49.666 42.74,48.975 Z M18.74,48.946 C18.74,48.246 19.31,47.675 20.01,47.675 C20.71,47.675 21.28,48.246 21.28,48.946 C21.28,49.645 20.71,50.215 20.01,50.215 C19.31,50.215 18.74,49.645 18.74,48.946 Z M22.74,48.946 C22.74,48.246 23.31,47.675 24.01,47.675 C24.71,47.675 25.28,48.246 25.28,48.946 C25.28,49.645 24.71,50.215 24.01,50.215 C23.31,50.215 22.74,49.645 22.74,48.946 Z M26.74,48.946 C26.74,48.246 27.31,47.675 28.01,47.675 C28.71,47.675 29.28,48.246 29.28,48.946 C29.28,49.645 28.71,50.215 28.01,50.215 C27.31,50.215 26.74,49.645 26.74,48.946 Z M30.74,48.946 C30.74,48.246 31.31,47.675 32.01,47.675 C32.71,47.675 33.28,48.246 33.28,48.946 C33.28,49.645 32.71,50.215 32.01,50.215 C31.31,50.215 30.74,49.645 30.74,48.946 Z M34.74,48.946 C34.74,48.246 35.31,47.675 36.01,47.675 C36.71,47.675 37.28,48.246 37.28,48.946 C37.28,49.645 36.71,50.215 36.01,50.215 C35.31,50.215 34.74,49.645 34.74,48.946 Z M38.74,48.946 C38.74,48.246 39.31,47.675 40.01,47.675 C40.71,47.675 41.28,48.246 41.28,48.946 C41.28,49.645 40.71,50.215 40.01,50.215 C39.31,50.215 38.74,49.645 38.74,48.946 Z" opacity=".99"/>
    <path d="M11.77 32.075C10.22 32.075 8.96 33.334 8.96 34.887 8.96 36.44 10.22 37.699 11.77 37.699 13.32 37.699 14.58 36.44 14.58 34.887 14.58 33.334 13.32 32.075 11.77 32.075zM19.7 42.814L12.67 49.843C12.42 50.091 12.1 50.214 11.77 50.214 11.45 50.214 11.12 50.091 10.87 49.843L3.84 42.814C-.53 38.443-.53 31.331 3.84 26.96 8.22 22.591 15.33 22.59 19.7 26.96 24.07 31.331 24.07 38.443 19.7 42.814zM45.36 8.738C43.81 8.738 42.55 9.997 42.55 11.55 42.55 13.103 43.81 14.361 45.36 14.361 46.91 14.361 48.17 13.103 48.17 11.55 48.17 9.997 46.91 8.738 45.36 8.738zM56.57 11.549C56.57 14.544 55.4 17.359 53.29 19.476L46.26 26.507C46.02 26.744 45.7 26.878 45.36 26.878 45.02 26.878 44.7 26.744 44.46 26.507L37.43 19.476C35.32 17.359 34.15 14.544 34.15 11.549 34.15 8.555 35.32 5.741 37.43 3.623 41.8-.746 48.92-.748 53.29 3.623 55.4 5.741 56.57 8.555 56.57 11.549z"/>
  </g>
</svg>
