<svg xmlns="http://www.w3.org/2000/svg" width="65" height="39" viewBox="0 0 65 39">
  <path fill="#CA4C52" fill-rule="evenodd" d="M1139.99,242.585 C1137.67,242.585 1135.78,240.704 1135.78,238.383 C1135.78,236.063 1137.67,234.182 1139.99,234.182 C1142.31,234.182 1144.19,236.063 1144.19,238.383 C1144.19,240.704 1142.31,242.585 1139.99,242.585 Z M1153.83,237.402 L1143.03,220.141 C1142.69,219.6 1142.1,219.272 1141.46,219.272 L1091.97,219.272 C1090.95,219.272 1090.12,220.101 1090.12,221.124 L1090.12,255.645 C1090.12,256.667 1090.95,257.496 1091.97,257.496 L1141.46,257.496 C1142.1,257.496 1142.69,257.168 1143.03,256.627 L1153.83,239.366 C1154.21,238.766 1154.21,238.003 1153.83,237.402 Z" transform="translate(-1090 -219)"/>
</svg>
