<svg xmlns="http://www.w3.org/2000/svg" width="87" height="79" viewBox="0 0 87 79">
  <g fill="none" fill-rule="evenodd" transform="translate(1 1)">
    <path stroke="#CA4C52" stroke-linecap="round" stroke-linejoin="round" stroke-width="2.538" d="M84.636,58.539 C84.636,60.738 82.836,62.539 80.636,62.539 L66.41,62.539 C64.21,62.539 62.41,60.738 62.41,58.539 L62.41,24.801 C62.41,22.601 64.21,20.801 66.41,20.801 L80.636,20.801 C82.836,20.801 84.636,22.601 84.636,24.801 L84.636,58.539 Z"/>
    <path stroke="#CA4C52" stroke-linecap="round" stroke-linejoin="round" stroke-width="1.5" d="M70.996,25.342 L76.049,25.342"/>
    <path fill="#C94D52" d="M75.063,56.622 C75.063,57.472 74.374,58.162 73.523,58.162 C72.672,58.162 71.982,57.472 71.982,56.622 C71.982,55.771 72.672,55.081 73.523,55.081 C74.374,55.081 75.063,55.771 75.063,56.622"/>
    <path stroke="#CA4C52" stroke-linecap="round" stroke-linejoin="round" stroke-width="2.538" d="M52.268,72.184 C52.268,74.384 50.468,76.184 48.268,76.184 L4.447,76.184 C2.247,76.184 0.447,74.384 0.447,72.184 L0.447,42.452 C0.447,40.252 2.247,38.452 4.447,38.452 L48.268,38.452 C50.468,38.452 52.268,40.252 52.268,42.452 L52.268,72.184 Z"/>
    <path stroke="#CA4C52" stroke-linecap="round" stroke-linejoin="round" stroke-width="1.5" d="M12.271,69.557 L21.134,69.557 L21.134,63.909 L12.271,63.909 L12.271,69.557 Z M8.844,60.61 L8.844,69.557 L24.56,69.557 L24.56,60.61 L8.844,60.61 Z M7.029,57.708 L10.568,53.601 L22.836,53.601 L26.375,57.708 L26.375,60.61 L7.029,60.61 L7.029,57.708 Z M16.702,63.909 L16.702,69.557 L16.702,63.909 Z M43.689,64.886 C43.689,65.855 42.789,66.647 41.689,66.647 L32.957,66.647 C31.857,66.647 30.957,65.855 30.957,64.886 C30.957,63.918 31.857,63.126 32.957,63.126 L41.689,63.126 C42.789,63.126 43.689,63.918 43.689,64.886 Z M31.252,57.445 L47.665,57.445 L31.252,57.445 Z M31.252,59.772 L35.691,59.772 L31.252,59.772 Z M37.7,59.772 L46.744,59.772 L37.7,59.772 Z M51.624,46.569 L0.447,46.569 L51.624,46.569 Z"/>
    <path fill="#CA4C52" d="M41.489 42.51C41.489 43.137 40.981 43.645 40.355 43.645 39.729 43.645 39.221 43.137 39.221 42.51 39.221 41.884 39.729 41.376 40.355 41.376 40.981 41.376 41.489 41.884 41.489 42.51M45.041 42.51C45.041 43.137 44.533 43.645 43.906 43.645 43.28 43.645 42.773 43.137 42.773 42.51 42.773 41.884 43.28 41.376 43.906 41.376 44.533 41.376 45.041 41.884 45.041 42.51M48.592 42.51C48.592 43.137 48.085 43.645 47.458 43.645 46.832 43.645 46.324 43.137 46.324 42.51 46.324 41.884 46.832 41.376 47.458 41.376 48.085 41.376 48.592 41.884 48.592 42.51"/>
    <polygon stroke="#CA4C52" stroke-linecap="round" stroke-linejoin="round" stroke-width="1.5" points="29.881 27.106 44.451 27.106 44.451 17.822 29.881 17.822"/>
    <path stroke="#CA4C52" stroke-linecap="round" stroke-linejoin="round" stroke-width="2.538" d="M24.249,12.4 L24.249,27.107 L50.083,27.107 L50.083,12.4 L24.249,12.4 Z M21.266,7.629 L27.083,0.878 L47.249,0.878 L53.066,7.629 L53.066,12.4 L21.266,12.4 L21.266,7.629 Z"/>
    <path stroke="#CA4C52" stroke-linecap="round" stroke-linejoin="round" stroke-width="1.5" d="M37.166,17.822 L37.166,27.106"/>
  </g>
</svg>
