<svg width="57" height="46" viewBox="0 0 57 46" fill="none" xmlns="http://www.w3.org/2000/svg">
<path fill-rule="evenodd" clip-rule="evenodd" d="M10.59 29.328C9.24002 29.328 8.15002 30.419 8.15002 31.764C8.15002 33.11 9.24002 34.2 10.59 34.2C11.93 34.2 13.02 33.11 13.02 31.764C13.02 30.419 11.93 29.328 10.59 29.328ZM17.58 38.753L11.48 44.843C11.24 45.091 10.91 45.214 10.59 45.214C10.26 45.214 9.94002 45.091 9.69002 44.843L3.60002 38.753C-0.249975 34.899 -0.249975 28.63 3.60002 24.776C5.46002 22.91 7.95002 21.882 10.59 21.882C13.23 21.882 15.71 22.91 17.58 24.776C21.43 28.63 21.43 34.899 17.58 38.753Z" fill="#ebe8df"/>
<path fill-rule="evenodd" clip-rule="evenodd" d="M16.5899 45.215C16.4199 45.215 16.2599 45.185 16.0999 45.116C15.9499 45.055 15.8099 44.965 15.6899 44.845C15.4499 44.605 15.3199 44.286 15.3199 43.946C15.3199 43.866 15.3299 43.775 15.3399 43.696C15.3599 43.616 15.3799 43.536 15.4199 43.456C15.4499 43.385 15.4899 43.305 15.5299 43.246C15.5799 43.175 15.6299 43.105 15.6899 43.046C16.1599 42.576 17.0099 42.576 17.4899 43.046C17.5399 43.105 17.5999 43.175 17.6399 43.246C17.6899 43.305 17.7299 43.385 17.7599 43.456C17.7899 43.536 17.8199 43.616 17.8299 43.696C17.8499 43.775 17.8599 43.866 17.8599 43.946C17.8599 44.286 17.7199 44.605 17.4899 44.845C17.3699 44.965 17.2299 45.055 17.0699 45.116C16.9199 45.185 16.7599 45.215 16.5899 45.215Z" fill="#ebe8df"/>
<path fill-rule="evenodd" clip-rule="evenodd" d="M19.3199 43.946C19.3199 43.246 19.8899 42.675 20.5899 42.675C21.2899 42.675 21.8599 43.246 21.8599 43.946C21.8599 44.645 21.2899 45.215 20.5899 45.215C19.8899 45.215 19.3199 44.645 19.3199 43.946ZM23.3199 43.946C23.3199 43.246 23.8899 42.675 24.5899 42.675C25.2899 42.675 25.8599 43.246 25.8599 43.946C25.8599 44.645 25.2899 45.215 24.5899 45.215C23.8899 45.215 23.3199 44.645 23.3199 43.946Z" fill="#ebe8df"/>
<path fill-rule="evenodd" clip-rule="evenodd" d="M28.5899 45.215C28.4199 45.215 28.2599 45.185 28.0999 45.116C27.9499 45.055 27.8099 44.965 27.6899 44.845C27.4499 44.605 27.3199 44.286 27.3199 43.946C27.3199 43.866 27.3299 43.775 27.3399 43.696C27.3599 43.616 27.3799 43.536 27.4199 43.456C27.4499 43.385 27.4899 43.305 27.5299 43.246C27.5799 43.175 27.6299 43.105 27.6899 43.046C27.7499 42.986 27.8099 42.935 27.8799 42.885C27.9499 42.845 28.0299 42.805 28.0999 42.775C28.1799 42.746 28.2599 42.715 28.3399 42.706C28.7499 42.616 29.1899 42.756 29.4899 43.046C29.5399 43.105 29.5999 43.175 29.6399 43.246C29.6899 43.305 29.7299 43.385 29.7599 43.456C29.7899 43.536 29.8199 43.616 29.8299 43.696C29.8499 43.775 29.8599 43.866 29.8599 43.946C29.8599 44.286 29.7299 44.605 29.4899 44.845C29.3699 44.965 29.2299 45.055 29.0699 45.116C28.9199 45.185 28.7599 45.215 28.5899 45.215Z" fill="#ebe8df"/>
<path fill-rule="evenodd" clip-rule="evenodd" d="M27.3199 27.135C27.3199 26.435 27.8899 25.876 28.5899 25.876C29.2899 25.876 29.8599 26.435 29.8599 27.135C29.8599 27.845 29.2899 28.406 28.5899 28.406C27.8899 28.406 27.3199 27.845 27.3199 27.135ZM27.3199 31.345C27.3199 30.635 27.8899 30.076 28.5899 30.076C29.2899 30.076 29.8599 30.635 29.8599 31.345C29.8599 32.046 29.2899 32.605 28.5899 32.605C27.8899 32.605 27.3199 32.046 27.3199 31.345ZM27.3199 35.546C27.3199 34.845 27.8899 34.275 28.5899 34.275C29.2899 34.275 29.8599 34.845 29.8599 35.546C29.8599 36.246 29.2899 36.805 28.5899 36.805C27.8899 36.805 27.3199 36.246 27.3199 35.546ZM27.3199 39.746C27.3199 39.046 27.8899 38.475 28.5899 38.475C29.2899 38.475 29.8599 39.046 29.8599 39.746C29.8599 40.446 29.2899 41.015 28.5899 41.015C27.8899 41.015 27.3199 40.446 27.3199 39.746Z" fill="#ebe8df"/>
<path fill-rule="evenodd" clip-rule="evenodd" d="M28.5899 24.206C28.4199 24.206 28.2599 24.175 28.0999 24.105C27.9499 24.046 27.8099 23.956 27.6899 23.836C27.4499 23.595 27.3199 23.275 27.3199 22.935C27.3199 22.855 27.3299 22.775 27.3399 22.685C27.3599 22.605 27.3799 22.525 27.4199 22.456C27.4499 22.376 27.4899 22.305 27.5299 22.236C27.5799 22.166 27.6299 22.095 27.6899 22.036C27.7499 21.986 27.8099 21.925 27.8799 21.885C27.9499 21.836 28.0299 21.796 28.0999 21.765C28.1799 21.736 28.2599 21.706 28.3399 21.696C28.4999 21.656 28.6699 21.666 28.8399 21.696C28.9199 21.706 28.9999 21.736 29.0699 21.765C29.1499 21.796 29.2199 21.836 29.2899 21.885C29.3599 21.925 29.4299 21.986 29.4899 22.036C29.5399 22.095 29.5999 22.166 29.6399 22.236C29.6899 22.305 29.7299 22.376 29.7599 22.456C29.7899 22.525 29.8199 22.605 29.8299 22.685C29.8499 22.775 29.8599 22.855 29.8599 22.935C29.8599 23.275 29.7299 23.595 29.4899 23.836C29.3699 23.956 29.2299 24.046 29.0699 24.105C28.9199 24.175 28.7599 24.206 28.5899 24.206Z" fill="#ebe8df"/>
<path fill-rule="evenodd" clip-rule="evenodd" d="M31.3199 22.935C31.3199 22.236 31.8899 21.666 32.5899 21.666C33.2899 21.666 33.8599 22.236 33.8599 22.935C33.8599 23.635 33.2899 24.206 32.5899 24.206C31.8899 24.206 31.3199 23.635 31.3199 22.935ZM35.3199 22.935C35.3199 22.236 35.8899 21.666 36.5899 21.666C37.2899 21.666 37.8599 22.236 37.8599 22.935C37.8599 23.635 37.2899 24.206 36.5899 24.206C35.8899 24.206 35.3199 23.635 35.3199 22.935Z" fill="#ebe8df"/>
<path fill-rule="evenodd" clip-rule="evenodd" d="M40.5899 24.206C40.4199 24.206 40.2599 24.175 40.0999 24.105C39.9499 24.046 39.8099 23.956 39.6899 23.836C39.4499 23.595 39.3199 23.275 39.3199 22.935C39.3199 22.855 39.3299 22.775 39.3399 22.685C39.3599 22.605 39.3799 22.525 39.4199 22.456C39.4499 22.376 39.4899 22.305 39.5299 22.236C39.5799 22.166 39.6299 22.095 39.6899 22.036C39.7499 21.986 39.8099 21.925 39.8799 21.885C39.9499 21.836 40.0299 21.796 40.0999 21.765C40.1799 21.736 40.2599 21.706 40.3399 21.696C40.7499 21.616 41.1899 21.746 41.4899 22.036C41.5399 22.095 41.5999 22.166 41.6399 22.236C41.6899 22.305 41.7299 22.376 41.7599 22.456C41.7899 22.525 41.8199 22.605 41.8299 22.685C41.8499 22.775 41.8599 22.855 41.8599 22.935C41.8599 23.275 41.7199 23.595 41.4799 23.836C41.2499 24.076 40.9299 24.206 40.5899 24.206Z" fill="#ebe8df"/>
<path fill-rule="evenodd" clip-rule="evenodd" d="M46.8 8.32001C45.45 8.32001 44.36 9.41101 44.36 10.757C44.36 12.103 45.45 13.194 46.8 13.194C48.14 13.194 49.23 12.103 49.23 10.757C49.23 9.41101 48.14 8.32001 46.8 8.32001ZM56.68 10.757C56.68 13.397 55.65 15.879 53.79 17.746L47.7 23.836C47.45 24.084 47.12 24.207 46.8 24.207C46.47 24.207 46.15 24.084 45.9 23.836L39.81 17.746C37.94 15.879 36.92 13.397 36.92 10.757C36.92 8.117 37.94 5.635 39.81 3.769C41.68 1.903 44.16 0.875 46.8 0.875C49.44 0.875 51.92 1.903 53.79 3.769C55.65 5.635 56.68 8.117 56.68 10.757Z" fill="#ebe8df"/>
</svg>
