<svg width="101" height="95" viewBox="0 0 101 95" fill="none" xmlns="http://www.w3.org/2000/svg">
<path fill-rule="evenodd" clip-rule="evenodd" d="M15.724 91.575C15.724 92.674 14.824 93.575 13.724 93.575H3.37799C2.27799 93.575 1.37799 92.674 1.37799 91.575V68.634C1.37799 67.534 2.27799 66.634 3.37799 66.634H13.724C14.824 66.634 15.724 67.534 15.724 68.634V91.575Z" stroke="#DA404E" stroke-width="2.538" stroke-linecap="round" stroke-linejoin="round"/>
<path d="M6.92001 70.5H10.182" stroke="#DA404E" stroke-width="1.5" stroke-linecap="round" stroke-linejoin="round"/>
<path fill-rule="evenodd" clip-rule="evenodd" d="M9.54601 88.821C9.54601 89.37 9.10001 89.816 8.55101 89.816C8.00201 89.816 7.55701 89.37 7.55701 88.821C7.55701 88.272 8.00201 87.827 8.55101 87.827C9.10001 87.827 9.54601 88.272 9.54601 88.821Z" fill="#DA414D"/>
<path fill-rule="evenodd" clip-rule="evenodd" d="M60.52 89.575C60.52 91.775 58.72 93.575 56.52 93.575H27.52C25.32 93.575 23.52 91.775 23.52 89.575V70.634C23.52 68.435 25.32 66.634 27.52 66.634H56.52C58.72 66.634 60.52 68.435 60.52 70.634V89.575Z" stroke="#DA404E" stroke-width="2.538" stroke-linecap="round" stroke-linejoin="round"/>
<path d="M31.962 88.843H31.212C31.212 89.2572 31.5478 89.593 31.962 89.593V88.843ZM38.291 88.843V89.593C38.7052 89.593 39.041 89.2572 39.041 88.843H38.291ZM38.291 84.811H39.041C39.041 84.3968 38.7052 84.061 38.291 84.061V84.811ZM31.962 84.811V84.061C31.5478 84.061 31.212 84.3968 31.212 84.811H31.962ZM29.516 82.455V81.705C29.1018 81.705 28.766 82.0408 28.766 82.455H29.516ZM29.516 88.843H28.766C28.766 89.2572 29.1018 89.593 29.516 89.593V88.843ZM40.736 88.843V89.593C41.1502 89.593 41.486 89.2572 41.486 88.843H40.736ZM40.736 82.455H41.486C41.486 82.0408 41.1502 81.705 40.736 81.705V82.455ZM28.22 80.383L27.6518 79.8934C27.5345 80.0296 27.47 80.2033 27.47 80.383H28.22ZM30.747 77.45V76.7C30.5287 76.7 30.3212 76.7951 30.1788 76.9604L30.747 77.45ZM39.505 77.45L40.0731 76.9603C39.9306 76.795 39.7232 76.7 39.505 76.7V77.45ZM42.033 80.383H42.783C42.783 80.2032 42.7184 80.0295 42.6011 79.8933L42.033 80.383ZM42.033 82.455V83.205C42.4472 83.205 42.783 82.8692 42.783 82.455H42.033ZM28.22 82.455H27.47C27.47 82.8692 27.8058 83.205 28.22 83.205V82.455ZM35.876 84.811C35.876 84.3968 35.5402 84.061 35.126 84.061C34.7118 84.061 34.376 84.3968 34.376 84.811H35.876ZM34.376 88.843C34.376 89.2572 34.7118 89.593 35.126 89.593C35.5402 89.593 35.876 89.2572 35.876 88.843H34.376ZM45.515 78.685C45.1008 78.685 44.765 79.0208 44.765 79.435C44.765 79.8492 45.1008 80.185 45.515 80.185V78.685ZM57.233 80.185C57.6472 80.185 57.983 79.8492 57.983 79.435C57.983 79.0208 57.6472 78.685 57.233 78.685V80.185ZM45.515 81.107C45.1008 81.107 44.765 81.4428 44.765 81.857C44.765 82.2712 45.1008 82.607 45.515 82.607V81.107ZM48.684 82.607C49.0982 82.607 49.434 82.2712 49.434 81.857C49.434 81.4428 49.0982 81.107 48.684 81.107V82.607ZM50.118 81.107C49.7038 81.107 49.368 81.4428 49.368 81.857C49.368 82.2712 49.7038 82.607 50.118 82.607V81.107ZM56.576 82.607C56.9902 82.607 57.326 82.2712 57.326 81.857C57.326 81.4428 56.9902 81.107 56.576 81.107V82.607ZM60.06 73.179C60.4742 73.179 60.81 72.8432 60.81 72.429C60.81 72.0148 60.4742 71.679 60.06 71.679V73.179ZM23.52 71.679C23.1058 71.679 22.77 72.0148 22.77 72.429C22.77 72.8432 23.1058 73.179 23.52 73.179V71.679ZM31.962 89.593H38.291V88.093H31.962V89.593ZM39.041 88.843V84.811H37.541V88.843H39.041ZM38.291 84.061H31.962V85.561H38.291V84.061ZM31.212 84.811V88.843H32.712V84.811H31.212ZM28.766 82.455V88.843H30.266V82.455H28.766ZM29.516 89.593H40.736V88.093H29.516V89.593ZM41.486 88.843V82.455H39.986V88.843H41.486ZM40.736 81.705H29.516V83.205H40.736V81.705ZM28.7882 80.8725L31.3152 77.9395L30.1788 76.9604L27.6518 79.8934L28.7882 80.8725ZM30.747 78.2H39.505V76.7H30.747V78.2ZM38.9369 77.9396L41.4649 80.8726L42.6011 79.8933L40.0731 76.9603L38.9369 77.9396ZM41.283 80.383V82.455H42.783V80.383H41.283ZM42.033 81.705H28.22V83.205H42.033V81.705ZM28.97 82.455V80.383H27.47V82.455H28.97ZM34.376 84.811V88.843H35.876V84.811H34.376ZM35.876 88.843V84.811H34.376V88.843H35.876ZM53.644 86.526C53.644 86.6618 53.5298 86.776 53.394 86.776V88.276C54.3582 88.276 55.144 87.4902 55.144 86.526H53.644ZM53.394 86.776H46.304V88.276H53.394V86.776ZM46.304 86.776C46.1682 86.776 46.054 86.6618 46.054 86.526H44.554C44.554 87.4902 45.3398 88.276 46.304 88.276V86.776ZM46.054 86.526V86.012H44.554V86.526H46.054ZM46.054 86.012C46.054 85.8762 46.1682 85.762 46.304 85.762V84.262C45.3398 84.262 44.554 85.0478 44.554 86.012H46.054ZM46.304 85.762H53.394V84.262H46.304V85.762ZM53.394 85.762C53.5298 85.762 53.644 85.8762 53.644 86.012H55.144C55.144 85.0478 54.3582 84.262 53.394 84.262V85.762ZM53.644 86.012V86.526H55.144V86.012H53.644ZM45.515 80.185H57.233V78.685H45.515V80.185ZM57.233 78.685H45.515V80.185H57.233V78.685ZM45.515 82.607H48.684V81.107H45.515V82.607ZM48.684 81.107H45.515V82.607H48.684V81.107ZM50.118 82.607H56.576V81.107H50.118V82.607ZM56.576 81.107H50.118V82.607H56.576V81.107ZM60.06 71.679H23.52V73.179H60.06V71.679ZM23.52 73.179H60.06V71.679H23.52V73.179Z" fill="#DA404E"/>
<path fill-rule="evenodd" clip-rule="evenodd" d="M51.418 70.147C51.418 70.536 51.103 70.852 50.714 70.852C50.325 70.852 50.009 70.536 50.009 70.147C50.009 69.758 50.325 69.443 50.714 69.443C51.103 69.443 51.418 69.758 51.418 70.147Z" fill="#DA404E"/>
<path fill-rule="evenodd" clip-rule="evenodd" d="M53.624 70.147C53.624 70.536 53.309 70.852 52.92 70.852C52.531 70.852 52.215 70.536 52.215 70.147C52.215 69.758 52.531 69.443 52.92 69.443C53.309 69.443 53.624 69.758 53.624 70.147Z" fill="#DA404E"/>
<path fill-rule="evenodd" clip-rule="evenodd" d="M55.83 70.147C55.83 70.536 55.515 70.852 55.126 70.852C54.737 70.852 54.421 70.536 54.421 70.147C54.421 69.758 54.737 69.443 55.126 69.443C55.515 69.443 55.83 69.758 55.83 70.147Z" fill="#DA404E"/>
<path d="M75.624 93.574H74.355C74.355 94.2748 74.9232 94.843 75.624 94.843V93.574ZM90.588 93.574V94.843C91.2889 94.843 91.857 94.2748 91.857 93.574H90.588ZM90.588 84.038H91.857C91.857 83.3371 91.2889 82.769 90.588 82.769V84.038ZM75.624 84.038V82.769C74.9232 82.769 74.355 83.3371 74.355 84.038H75.624ZM69.8391 78.469V77.2C69.1382 77.2 68.5701 77.7681 68.5701 78.469H69.8391ZM69.8391 93.575H68.5701C68.5701 94.2758 69.1382 94.844 69.8391 94.844V93.575ZM96.3731 93.575V94.844C97.0739 94.844 97.6421 94.2758 97.6421 93.575H96.3731ZM96.3731 78.469H97.6421C97.6421 77.7681 97.0739 77.2 96.3731 77.2V78.469ZM66.775 73.569L65.8136 72.7407C65.6152 72.971 65.506 73.265 65.506 73.569H66.775ZM72.75 66.634V65.365C72.3807 65.365 72.0297 65.5259 71.7886 65.8057L72.75 66.634ZM93.462 66.634L94.4233 65.8056C94.1823 65.5259 93.8313 65.365 93.462 65.365V66.634ZM99.438 73.569H100.707C100.707 73.2649 100.598 72.971 100.399 72.7406L99.438 73.569ZM99.438 78.469V79.738C100.139 79.738 100.707 79.1699 100.707 78.469H99.438ZM66.775 78.469H65.506C65.506 79.1699 66.0742 79.738 66.775 79.738V78.469ZM84.375 84.038C84.375 83.3371 83.8069 82.769 83.106 82.769C82.4052 82.769 81.837 83.3371 81.837 84.038H84.375ZM81.837 93.574C81.837 94.2748 82.4052 94.843 83.106 94.843C83.8069 94.843 84.375 94.2748 84.375 93.574H81.837ZM75.624 94.843H90.588V92.305H75.624V94.843ZM91.857 93.574V84.038H89.319V93.574H91.857ZM90.588 82.769H75.624V85.307H90.588V82.769ZM74.355 84.038V93.574H76.893V84.038H74.355ZM68.5701 78.469V93.575H71.1081V78.469H68.5701ZM69.8391 94.844H96.3731V92.306H69.8391V94.844ZM97.6421 93.575V78.469H95.104V93.575H97.6421ZM96.3731 77.2H69.8391V79.738H96.3731V77.2ZM67.7364 74.3973L73.7114 67.4623L71.7886 65.8057L65.8136 72.7407L67.7364 74.3973ZM72.75 67.903H93.462V65.365H72.75V67.903ZM92.5007 67.4624L98.4767 74.3974L100.399 72.7406L94.4233 65.8056L92.5007 67.4624ZM98.169 73.569V78.469H100.707V73.569H98.169ZM99.438 77.2H66.775V79.738H99.438V77.2ZM68.044 78.469V73.569H65.506V78.469H68.044ZM81.837 84.038V93.574H84.375V84.038H81.837ZM84.375 93.574V84.038H81.837V93.574H84.375Z" fill="#DA404E"/>
<path d="M46.153 38.087C46.153 37.6728 45.8172 37.337 45.403 37.337C44.9888 37.337 44.653 37.6728 44.653 38.087H46.153ZM44.653 53.447C44.653 53.8612 44.9888 54.197 45.403 54.197C45.8172 54.197 46.153 53.8612 46.153 53.447H44.653ZM42.89 52.193V51.443C42.5867 51.443 42.3132 51.6257 42.1971 51.906C42.081 52.1862 42.1452 52.5088 42.3597 52.7233L42.89 52.193ZM45.403 54.706L44.8727 55.2363C45.1655 55.5292 45.6403 55.5292 45.9332 55.2364L45.403 54.706ZM47.917 52.193L48.4472 52.7234C48.6618 52.509 48.726 52.1863 48.61 51.906C48.4939 51.6258 48.2204 51.443 47.917 51.443V52.193ZM64.5203 37.5567C64.2274 37.2638 63.7526 37.2638 63.4597 37.5567C63.1668 37.8496 63.1668 38.3244 63.4597 38.6173L64.5203 37.5567ZM74.5117 49.6693C74.8046 49.9622 75.2794 49.9622 75.5723 49.6693C75.8652 49.3764 75.8652 48.9016 75.5723 48.6087L74.5117 49.6693ZM72.377 50.028L71.8467 49.4977C71.6322 49.7122 71.568 50.0348 71.6841 50.315C71.8002 50.5953 72.0737 50.778 72.377 50.778V50.028ZM75.931 50.028V50.778C76.3452 50.778 76.681 50.4422 76.681 50.028H75.931ZM75.931 46.474H76.681C76.681 46.1707 76.4983 45.8972 76.218 45.7811C75.9378 45.665 75.6152 45.7292 75.4007 45.9437L75.931 46.474ZM27.3474 38.6173C27.6403 38.3244 27.6402 37.8495 27.3473 37.5567C27.0544 37.2638 26.5795 37.2638 26.2867 37.5567L27.3474 38.6173ZM15.2357 48.6087C14.9428 48.9016 14.9428 49.3765 15.2357 49.6694C15.5286 49.9622 16.0035 49.9622 16.2964 49.6693L15.2357 48.6087ZM14.876 46.474L15.4063 45.9437C15.1918 45.7292 14.8693 45.665 14.589 45.7811C14.3087 45.8972 14.126 46.1707 14.126 46.474H14.876ZM14.876 50.028H14.126C14.126 50.4422 14.4618 50.778 14.876 50.778V50.028ZM18.43 50.028V50.778C18.7334 50.778 19.0068 50.5953 19.1229 50.315C19.239 50.0348 19.1748 49.7122 18.9603 49.4977L18.43 50.028ZM44.653 38.087V53.447H46.153V38.087H44.653ZM42.3597 52.7233L44.8727 55.2363L45.9333 54.1757L43.4203 51.6627L42.3597 52.7233ZM45.9332 55.2364L48.4472 52.7234L47.3868 51.6626L44.8728 54.1756L45.9332 55.2364ZM42.89 52.943H47.917V51.443H42.89V52.943ZM63.4597 38.6173L74.5117 49.6693L75.5723 48.6087L64.5203 37.5567L63.4597 38.6173ZM72.377 50.778H75.931V49.278H72.377V50.778ZM76.681 50.028V46.474H75.181V50.028H76.681ZM72.9073 50.5583L76.4613 47.0043L75.4007 45.9437L71.8467 49.4977L72.9073 50.5583ZM26.2867 37.5567L15.2357 48.6087L16.2964 49.6693L27.3474 38.6173L26.2867 37.5567ZM14.126 46.474V50.028H15.626V46.474H14.126ZM14.876 50.778H18.43V49.278H14.876V50.778ZM14.3457 47.0043L17.8997 50.5583L18.9603 49.4977L15.4063 45.9437L14.3457 47.0043Z" fill="#DA404E"/>
<path d="M61.094 29.875V31.144C61.7949 31.144 62.363 30.5759 62.363 29.875H61.094ZM30.416 29.875H29.147C29.147 30.5759 29.7152 31.144 30.416 31.144V29.875ZM62.363 29.875C62.363 28.5855 61.6197 27.3232 60.766 26.279C59.8734 25.1873 58.6769 24.1135 57.405 23.1726C56.1293 22.2289 54.7368 21.3886 53.4266 20.7787C52.154 20.1863 50.82 19.745 49.703 19.745V22.283C50.255 22.283 51.1794 22.5321 52.3555 23.0796C53.4941 23.6096 54.7408 24.3587 55.8956 25.2129C57.0541 26.07 58.0795 27.0029 58.8011 27.8855C59.5617 28.8157 59.825 29.4956 59.825 29.875H62.363ZM49.703 19.745H41.807V22.283H49.703V19.745ZM41.807 19.745C40.69 19.745 39.3561 20.1863 38.0834 20.7787C36.7732 21.3886 35.3808 22.2289 34.1051 23.1726C32.8331 24.1135 31.6366 25.1873 30.744 26.279C29.8903 27.3232 29.147 28.5855 29.147 29.875H31.685C31.685 29.4956 31.9484 28.8157 32.7089 27.8855C33.4305 27.0029 34.4559 26.07 35.6145 25.2129C36.7693 24.3587 38.0159 23.6096 39.1545 23.0796C40.3306 22.5321 41.255 22.283 41.807 22.283V19.745ZM30.416 31.144H61.094V28.606H30.416V31.144ZM51.566 8.772C51.566 11.9812 48.9641 14.583 45.755 14.583V17.121C50.3658 17.121 54.104 13.3829 54.104 8.772H51.566ZM45.755 14.583C42.5458 14.583 39.944 11.9812 39.944 8.772H37.406C37.406 13.3829 41.1441 17.121 45.755 17.121V14.583ZM39.944 8.772C39.944 5.56285 42.5458 2.961 45.755 2.961V0.423001C41.1441 0.423001 37.406 4.16115 37.406 8.772H39.944ZM45.755 2.961C48.9641 2.961 51.566 5.56285 51.566 8.772H54.104C54.104 4.16115 50.3658 0.423001 45.755 0.423001V2.961Z" fill="#DA404E"/>
</svg>
