<svg width="58" height="80" viewBox="0 0 58 80" fill="none" xmlns="http://www.w3.org/2000/svg">
<path d="M16.745 53.182C16.1927 53.182 15.745 53.6297 15.745 54.182C15.745 54.7343 16.1927 55.182 16.745 55.182V53.182ZM42.367 55.182C42.9193 55.182 43.367 54.7343 43.367 54.182C43.367 53.6297 42.9193 53.182 42.367 53.182V55.182ZM49.312 42.781C49.8643 42.781 50.312 42.3333 50.312 41.781C50.312 41.2287 49.8643 40.781 49.312 40.781V42.781ZM9.30402 40.781C8.75173 40.781 8.30402 41.2287 8.30402 41.781C8.30402 42.3333 8.75173 42.781 9.30402 42.781V40.781ZM16.745 55.182H42.367V53.182H16.745V55.182ZM49.312 40.781H9.30402V42.781H49.312V40.781Z" fill="#ebe8df"/>
<path d="M1.71399 29.38H56.654L35.174 66.584V78.564H23.194V66.584L1.71399 29.38" stroke="#ebe8df" stroke-width="2.5" stroke-linecap="round" stroke-linejoin="round"/>
<path d="M35.174 67.584C35.7263 67.584 36.174 67.1363 36.174 66.584C36.174 66.0317 35.7263 65.584 35.174 65.584V67.584ZM23.194 65.584C22.6417 65.584 22.194 66.0317 22.194 66.584C22.194 67.1363 22.6417 67.584 23.194 67.584V65.584ZM35.174 65.584H23.194V67.584H35.174V65.584ZM23.194 67.584H35.174V65.584H23.194V67.584ZM12.674 4.316C12.674 5.28172 11.8917 6.064 10.926 6.064V8.064C12.9963 8.064 14.674 6.38629 14.674 4.316H12.674ZM10.926 6.064C9.95981 6.064 9.177 5.28124 9.177 4.316H7.177C7.177 6.38676 8.85619 8.064 10.926 8.064V6.064ZM9.177 4.316C9.177 3.35029 9.96029 2.567 10.926 2.567V0.567001C8.85572 0.567001 7.177 2.24572 7.177 4.316H9.177ZM10.926 2.567C11.8912 2.567 12.674 3.34981 12.674 4.316H14.674C14.674 2.24619 12.9968 0.567001 10.926 0.567001V2.567ZM24.846 4.316C24.846 5.28172 24.0637 6.064 23.098 6.064V8.064C25.1683 8.064 26.846 6.38629 26.846 4.316H24.846ZM23.098 6.064C22.1318 6.064 21.349 5.28124 21.349 4.316H19.349C19.349 6.38676 21.0282 8.064 23.098 8.064V6.064ZM21.349 4.316C21.349 3.35029 22.1323 2.567 23.098 2.567V0.567001C21.0277 0.567001 19.349 2.24572 19.349 4.316H21.349ZM23.098 2.567C24.0632 2.567 24.846 3.34981 24.846 4.316H26.846C26.846 2.24619 25.1688 0.567001 23.098 0.567001V2.567ZM37.019 4.316C37.019 5.28124 36.2362 6.064 35.27 6.064V8.064C37.3398 8.064 39.019 6.38676 39.019 4.316H37.019ZM35.27 6.064C34.3043 6.064 33.522 5.28172 33.522 4.316H31.522C31.522 6.38629 33.1997 8.064 35.27 8.064V6.064ZM33.522 4.316C33.522 3.34981 34.3047 2.567 35.27 2.567V0.567001C33.1992 0.567001 31.522 2.24619 31.522 4.316H33.522ZM35.27 2.567C36.2357 2.567 37.019 3.35029 37.019 4.316H39.019C39.019 2.24572 37.3403 0.567001 35.27 0.567001V2.567ZM49.19 4.316C49.19 5.28172 48.4077 6.064 47.442 6.064V8.064C49.5123 8.064 51.19 6.38629 51.19 4.316H49.19ZM47.442 6.064C46.4758 6.064 45.693 5.28124 45.693 4.316H43.693C43.693 6.38676 45.3722 8.064 47.442 8.064V6.064ZM45.693 4.316C45.693 3.35029 46.4763 2.567 47.442 2.567V0.567001C45.3717 0.567001 43.693 2.24572 43.693 4.316H45.693ZM47.442 2.567C48.4072 2.567 49.19 3.34981 49.19 4.316H51.19C51.19 2.24619 49.5128 0.567001 47.442 0.567001V2.567ZM18.76 14.524C18.76 15.4902 17.9772 16.273 17.012 16.273V18.273C19.0828 18.273 20.76 16.5938 20.76 14.524H18.76ZM17.012 16.273C16.0463 16.273 15.263 15.4897 15.263 14.524H13.263C13.263 16.5943 14.9417 18.273 17.012 18.273V16.273ZM15.263 14.524C15.263 13.5595 16.046 12.776 17.012 12.776V10.776C14.942 10.776 13.263 12.4545 13.263 14.524H15.263ZM17.012 12.776C17.9775 12.776 18.76 13.559 18.76 14.524H20.76C20.76 12.455 19.0825 10.776 17.012 10.776V12.776ZM30.932 14.524C30.932 15.4902 30.1492 16.273 29.184 16.273V18.273C31.2548 18.273 32.932 16.5938 32.932 14.524H30.932ZM29.184 16.273C28.2183 16.273 27.435 15.4897 27.435 14.524H25.435C25.435 16.5943 27.1137 18.273 29.184 18.273V16.273ZM27.435 14.524C27.435 13.5595 28.218 12.776 29.184 12.776V10.776C27.114 10.776 25.435 12.4545 25.435 14.524H27.435ZM29.184 12.776C30.1495 12.776 30.932 13.559 30.932 14.524H32.932C32.932 12.455 31.2545 10.776 29.184 10.776V12.776ZM43.105 14.524C43.105 15.4897 42.3217 16.273 41.356 16.273V18.273C43.4263 18.273 45.105 16.5943 45.105 14.524H43.105ZM41.356 16.273C40.3903 16.273 39.607 15.4897 39.607 14.524H37.607C37.607 16.5943 39.2857 18.273 41.356 18.273V16.273ZM39.607 14.524C39.607 13.5595 40.39 12.776 41.356 12.776V10.776C39.2859 10.776 37.607 12.4545 37.607 14.524H39.607ZM41.356 12.776C42.3219 12.776 43.105 13.5595 43.105 14.524H45.105C45.105 12.4545 43.426 10.776 41.356 10.776V12.776ZM24.846 24.733C24.846 25.6992 24.0632 26.482 23.098 26.482V28.482C25.1688 28.482 26.846 26.8028 26.846 24.733H24.846ZM23.098 26.482C22.1323 26.482 21.349 25.6987 21.349 24.733H19.349C19.349 26.8033 21.0277 28.482 23.098 28.482V26.482ZM21.349 24.733C21.349 23.7678 22.1318 22.985 23.098 22.985V20.985C21.0282 20.985 19.349 22.6622 19.349 24.733H21.349ZM23.098 22.985C24.0637 22.985 24.846 23.7673 24.846 24.733H26.846C26.846 22.6627 25.1683 20.985 23.098 20.985V22.985ZM37.019 24.733C37.019 25.6987 36.2357 26.482 35.27 26.482V28.482C37.3403 28.482 39.019 26.8033 39.019 24.733H37.019ZM35.27 26.482C34.3047 26.482 33.522 25.6992 33.522 24.733H31.522C31.522 26.8028 33.1992 28.482 35.27 28.482V26.482ZM33.522 24.733C33.522 23.7673 34.3043 22.985 35.27 22.985V20.985C33.1997 20.985 31.522 22.6627 31.522 24.733H33.522ZM35.27 22.985C36.2362 22.985 37.019 23.7678 37.019 24.733H39.019C39.019 22.6622 37.3398 20.985 35.27 20.985V22.985ZM30.932 34.942C30.932 35.9082 30.1492 36.691 29.184 36.691V38.691C31.2548 38.691 32.932 37.0118 32.932 34.942H30.932ZM29.184 36.691C28.2183 36.691 27.435 35.9077 27.435 34.942H25.435C25.435 37.0123 27.1137 38.691 29.184 38.691V36.691ZM27.435 34.942C27.435 33.9768 28.2178 33.194 29.184 33.194V31.194C27.1142 31.194 25.435 32.8712 25.435 34.942H27.435ZM29.184 33.194C30.1497 33.194 30.932 33.9763 30.932 34.942H32.932C32.932 32.8717 31.2543 31.194 29.184 31.194V33.194Z" fill="#ebe8df"/>
</svg>
