<svg width="72" height="63" viewBox="0 0 72 63" fill="none" xmlns="http://www.w3.org/2000/svg">
<path fill-rule="evenodd" clip-rule="evenodd" d="M70.204 56.778C70.204 58.978 68.404 60.778 66.204 60.778H5.80801C3.60801 60.778 1.80801 58.978 1.80801 56.778V9.879C1.80801 7.679 3.60801 5.879 5.80801 5.879H66.204C68.404 5.879 70.204 7.679 70.204 9.879V56.778Z" stroke="#DA404E" stroke-width="2.538" stroke-linecap="round" stroke-linejoin="round"/>
<path d="M42.858 28.944C40.85 27.716 38.499 26.996 35.973 26.996C28.668 26.996 22.746 32.918 22.746 40.223C22.746 47.528 28.668 53.45 35.973 53.45C43.278 53.45 49.2 47.528 49.2 40.223C49.2 39.398 49.115 38.594 48.97 37.811" stroke="#DA404E" stroke-width="2" stroke-linecap="round" stroke-linejoin="round"/>
<path d="M35.0563 43.8021C34.6129 44.3448 34.6933 45.1442 35.2361 45.5877C35.7788 46.0311 36.5782 45.9507 37.0217 45.4079L35.0563 43.8021ZM47.5507 32.5219C47.9941 31.9792 47.9137 31.1798 47.3709 30.7363C46.8282 30.2929 46.0288 30.3733 45.5853 30.9161L47.5507 32.5219ZM35.0564 45.408C35.4999 45.9507 36.2993 46.0311 36.842 45.5876C37.3847 45.1441 37.4651 44.3447 37.0216 43.802L35.0564 45.408ZM32.1116 37.794C31.6681 37.2513 30.8686 37.1709 30.326 37.6144C29.7833 38.0579 29.7029 38.8573 30.1464 39.4L32.1116 37.794ZM37.0217 45.4079L47.5507 32.5219L45.5853 30.9161L35.0563 43.8021L37.0217 45.4079ZM37.0216 43.802L32.1116 37.794L30.1464 39.4L35.0564 45.408L37.0216 43.802Z" fill="#DA404E"/>
<path d="M1.80801 21.191H70.204" stroke="#DA404E" stroke-width="2" stroke-linecap="round" stroke-linejoin="round"/>
<path d="M16.161 1.48C16.161 0.77915 15.5928 0.210999 14.892 0.210999C14.1911 0.210999 13.623 0.77915 13.623 1.48H16.161ZM13.623 10.829C13.623 11.5298 14.1911 12.098 14.892 12.098C15.5928 12.098 16.161 11.5298 16.161 10.829H13.623ZM58.388 1.48C58.388 0.77915 57.8198 0.210999 57.119 0.210999C56.4181 0.210999 55.85 0.77915 55.85 1.48H58.388ZM55.85 10.829C55.85 11.5298 56.4181 12.098 57.119 12.098C57.8198 12.098 58.388 11.5298 58.388 10.829H55.85ZM13.623 1.48V10.829H16.161V1.48H13.623ZM55.85 1.48V10.829H58.388V1.48H55.85Z" fill="#DA404E"/>
</svg>
