<?xml version="1.0" encoding="UTF-8" standalone="no"?>
<svg
   xmlns:dc="http://purl.org/dc/elements/1.1/"
   xmlns:cc="http://creativecommons.org/ns#"
   xmlns:rdf="http://www.w3.org/1999/02/22-rdf-syntax-ns#"
   xmlns:svg="http://www.w3.org/2000/svg"
   xmlns="http://www.w3.org/2000/svg"
   viewBox="0 0 1402.6667 298.66666"
   height="298.66666"
   width="1402.6667"
   xml:space="preserve"
   id="svg2"
   version="1.1"><metadata
     id="metadata8"><rdf:RDF><cc:Work
         rdf:about=""><dc:format>image/svg+xml</dc:format><dc:type
           rdf:resource="http://purl.org/dc/dcmitype/StillImage" /></cc:Work></rdf:RDF></metadata><defs
     id="defs6"><clipPath
       id="clipPath18"
       clipPathUnits="userSpaceOnUse"><path
         id="path16"
         d="M 0,224 H 1052 V 0 H 0 Z" /></clipPath></defs><g
     transform="matrix(1.3333333,0,0,-1.3333333,0,298.66667)"
     id="g10"><g
       id="g12"><g
         clip-path="url(#clipPath18)"
         id="g14"><g
           transform="translate(935.7891,132.9683)"
           id="g20"><path
             id="path22"
             style="fill:#e63f52;fill-opacity:1;fill-rule:nonzero;stroke:none"
             d="M 0,0 H -232.899 M 0.054,-44.961 c -3.075,0 -5.569,2.492 -5.569,5.568 0,3.075 2.494,5.567 5.569,5.567 3.074,0 5.567,-2.492 5.567,-5.567 0,-3.076 -2.493,-5.568 -5.567,-5.568 M -232.899,0 c -2.108,0 -3.817,-1.709 -3.817,-3.817 v -71.155 c 0,-2.108 1.709,-3.816 3.817,-3.816 H 0 c 1.314,0 2.537,0.676 3.234,1.791 l 22.272,35.579 c 0.774,1.237 0.774,2.81 0,4.049 L 3.234,-1.791 C 2.537,-0.677 1.314,0 0,0" /></g><g
           transform="translate(762.5215,113.2715)"
           id="g24"><path
             id="path26"
             style="fill:#ffffff;fill-opacity:1;fill-rule:nonzero;stroke:none"
             d="M 0,0 H 23.366 V -8.742 H 9.39 v -6.476 H 23.366 V -23.96 H 9.39 v -6.691 h 13.976 v -8.743 H 0 Z" /></g><g
           transform="translate(805.3115,104.4751)"
           id="g28"><path
             id="path30"
             style="fill:#ffffff;fill-opacity:1;fill-rule:nonzero;stroke:none"
             d="M 0,0 H -9.821 V 8.796 H 18.888 V 0 H 9.174 V -30.598 H 0 Z" /></g><g
           transform="translate(839.4131,88.2319)"
           id="g32"><path
             id="path34"
             style="fill:#ffffff;fill-opacity:1;fill-rule:nonzero;stroke:none"
             d="M 0,0 H 7.556 L 3.778,11.495 Z M -0.755,25.04 H 8.311 L 21.802,-14.354 H 12.25 l -1.889,5.773 h -13.22 l -1.889,-5.773 h -9.498 z" /></g><path
           id="path36"
           style="fill:#ffffff;fill-opacity:1;fill-rule:nonzero;stroke:none"
           d="m 878.989,73.877 h -9.498 v 39.394 h 9.498 z" /><g
           transform="translate(889.3477,113.2715)"
           id="g38"><path
             id="path40"
             style="fill:#ffffff;fill-opacity:1;fill-rule:nonzero;stroke:none"
             d="m 0,0 h 9.443 v -30.382 h 12.844 v -9.012 l -22.287,0 z" /></g><g
           transform="translate(732.8447,104.6377)"
           id="g42"><path
             id="path44"
             style="fill:#ffffff;fill-opacity:1;fill-rule:nonzero;stroke:none"
             d="m 0,0 v -10.361 h 4.102 c 3.993,0 5.881,2.32 5.881,5.234 C 9.983,-1.889 8.041,0 4.102,0 Z M 4.857,-19.05 H 0 V -30.76 H -9.39 V 8.634 H 4.803 c 9.498,0 14.787,-6.098 14.787,-13.545 0,-4.857 -2.268,-9.067 -6.045,-11.387 L 20.723,-30.76 H 10.308 Z" /></g><g
           transform="translate(112.5269,165.8477)"
           id="g46"><path
             id="path48"
             style="fill:#3d1152;fill-opacity:1;fill-rule:nonzero;stroke:none"
             d="m 0,0 h -21.903 v -111.667 h 63.505 v 20.958 H 0 Z" /></g><g
           transform="translate(200.6035,72.459)"
           id="g50"><path
             id="path52"
             style="fill:#3d1152;fill-opacity:1;fill-rule:nonzero;stroke:none"
             d="m 0,0 c -11.974,0 -21.114,9.141 -21.114,21.273 0,12.134 9.14,21.116 21.114,21.116 11.662,0 20.17,-9.454 20.17,-21.116 C 20.17,9.613 11.662,0 0,0 m 19.541,52.789 c -5.202,5.516 -13.236,9.297 -23.48,9.297 -17.805,0 -38.29,-13.079 -38.29,-40.97 0,-27.734 21.271,-40.97 37.975,-40.97 10.244,0 18.593,4.254 23.795,10.4 v -8.824 H 41.128 V 60.51 H 19.541 Z" /></g><g
           transform="translate(291.3516,103.3447)"
           id="g54"><path
             id="path56"
             style="fill:#3d1152;fill-opacity:1;fill-rule:nonzero;stroke:none"
             d="m 0,0 c -11.818,2.364 -16.39,3.625 -16.39,7.092 0,3.466 3.154,6.46 10.244,6.46 7.09,0 12.448,-3.467 14.498,-8.667 l 19.067,8.036 c -5.672,11.031 -15.757,18.28 -33.406,18.28 -19.54,0.315 -32.305,-11.503 -32.305,-24.741 0,-16.86 14.183,-21.745 28.363,-24.266 9.14,-1.733 16.863,-2.995 16.863,-7.249 0,-3.782 -3.783,-7.09 -10.873,-7.09 -7.723,0 -13.71,3.466 -16.546,10.714 l -20.643,-8.035 c 5.672,-13.867 17.175,-21.274 36.242,-21.274 22.691,-0.316 33.408,14.812 33.408,26.316 C 28.522,-7.406 13.236,-2.679 0,0" /></g><path
           id="path58"
           style="fill:#3d1152;fill-opacity:1;fill-rule:nonzero;stroke:none"
           d="m 519.98,54.181 h 21.591 v 78.788 H 519.98 Z" /><g
           transform="translate(530.6978,166.8481)"
           id="g60"><path
             id="path62"
             style="fill:#3d1152;fill-opacity:1;fill-rule:nonzero;stroke:none"
             d="M 0,0 C -7.723,0 -12.921,-5.357 -12.921,-13.078 -12.921,-20.799 -7.723,-26 0,-26 c 7.72,0 13.077,5.201 13.077,12.922 C 13.077,-5.357 7.72,0 0,0" /></g><path
           id="path64"
           style="fill:#3d1152;fill-opacity:1;fill-rule:nonzero;stroke:none"
           d="m 558.191,54.181 h 21.591 v 111.667 h -21.591 z" /><g
           transform="translate(614.998,103.1875)"
           id="g66"><path
             id="path68"
             style="fill:#3d1152;fill-opacity:1;fill-rule:nonzero;stroke:none"
             d="m 0,0 c 3.31,7.406 10.243,12.449 19.382,12.449 9.14,0 15.916,-4.256 18.752,-12.449 z m 59.88,-9.456 c 0,22.692 -16.545,40.814 -40.654,40.814 -22.692,0 -40.97,-18.279 -40.97,-40.971 0,-22.691 17.016,-40.97 41.599,-40.97 17.49,0 29.94,8.667 36.715,20.958 l -17.174,10.243 c -3.469,-7.563 -10.715,-12.291 -19.382,-12.291 -11.347,0 -18.438,5.672 -20.958,14.339 H 59.88 Z" /></g><g
           transform="translate(474.1982,134.5454)"
           id="g70"><path
             id="path72"
             style="fill:#3d1152;fill-opacity:1;fill-rule:nonzero;stroke:none"
             d="M 0,0 C -10.243,0 -19.225,-4.885 -24.583,-12.449 -29.31,-4.413 -37.662,0 -48.849,0 -57.674,0 -64.922,-3.782 -69.807,-9.928 v 8.351 10e-4 h -21.431 v -10e-4 h -30.863 v 32.879 h -21.588 V -46.17 c 0,-25.685 8.194,-34.195 33.25,-34.195 h 3.151 v 20.17 c -13.236,0 -14.813,1.892 -14.813,14.182 v 25.055 h 30.863 v -59.407 h 21.588 v 43.019 c 0,13.237 5.988,18.909 14.183,18.909 9.612,0 13.709,-6.146 13.709,-16.703 v -45.225 h 21.903 v 43.019 c 0,13.237 5.988,18.909 14.182,18.909 9.612,0 13.71,-6.146 13.71,-16.703 V -80.365 H 29.94 v 48.062 C 29.94,-11.976 20.012,0 0,0" /></g></g></g></g></svg>